<svg width="46" height="47" viewBox="0 0 46 47" fill="none" xmlns="http://www.w3.org/2000/svg">
<path d="M40.75 6.56247C39.8907 4.76713 38.535 3.25557 36.8434 2.20669C35.1519 1.15781 33.1952 0.615518 31.205 0.644012C29.2148 0.672506 27.2745 1.27059 25.6136 2.36747C23.9527 3.46435 22.6409 5.0141 21.8333 6.8333H12.5833C10.9257 6.8333 9.33602 7.49178 8.16391 8.66389C6.99181 9.83599 6.33333 11.4257 6.33333 13.0833V21.4166C6.33333 21.9692 6.55283 22.4991 6.94353 22.8898C7.33423 23.2805 7.86413 23.5 8.41666 23.5C8.9692 23.5 9.4991 23.2805 9.8898 22.8898C10.2805 22.4991 10.5 21.9692 10.5 21.4166V13.0833C10.5 12.5308 10.7195 12.0009 11.1102 11.6102C11.5009 11.2195 12.0308 11 12.5833 11H18.375C17.3379 12.1409 16.7592 13.6249 16.75 15.1666C16.75 16.8242 17.4085 18.414 18.5806 19.5861C19.7527 20.7582 21.3424 21.4166 23 21.4166H38.2708C40.0849 21.4297 41.8442 20.7956 43.2327 19.6281C44.6213 18.4607 45.5481 16.8364 45.8467 15.0471C46.1454 13.2577 45.7963 11.4205 44.8621 9.86543C43.928 8.31033 42.47 7.13923 40.75 6.56247ZM38.2708 17.25H23C22.4475 17.25 21.9176 17.0305 21.5269 16.6398C21.1362 16.2491 20.9167 15.7192 20.9167 15.1666C20.9167 14.6141 21.1362 14.0842 21.5269 13.6935C21.9176 13.3028 22.4475 13.0833 23 13.0833C23.5525 13.0833 24.0824 12.8638 24.4731 12.4731C24.8638 12.0824 25.0833 11.5525 25.0833 11C25.0665 9.51321 25.5803 8.06916 26.5324 6.92713C27.4845 5.7851 28.8126 5.01991 30.2781 4.76896C31.7436 4.51802 33.2506 4.79776 34.5284 5.55795C35.8062 6.31814 36.7712 7.50899 37.25 8.91664C37.3691 9.27464 37.5832 9.59358 37.8694 9.83941C38.1555 10.0853 38.5031 10.2488 38.875 10.3125C39.6897 10.4474 40.4286 10.8712 40.9565 11.5062C41.4844 12.1413 41.7661 12.9451 41.75 13.7708C41.75 14.2277 41.66 14.6801 41.4852 15.1022C41.3103 15.5243 41.054 15.9079 40.731 16.2309C40.4079 16.554 40.0244 16.8103 39.6023 16.9851C39.1801 17.16 38.7277 17.25 38.2708 17.25ZM37.5833 25.5833C37.0308 25.5833 36.5009 25.8028 36.1102 26.1935C35.7195 26.5842 35.5 27.1141 35.5 27.6666V33.9166C35.5 34.4692 35.2805 34.9991 34.8898 35.3898C34.4991 35.7805 33.9692 36 33.4167 36H28.7083C28.3057 34.969 27.6834 34.038 26.8847 33.2717C26.0861 32.5054 25.1301 31.9221 24.0833 31.5625C23.1393 29.559 21.5812 27.9085 19.6353 26.8508C17.6894 25.793 15.457 25.383 13.2622 25.6803C11.0675 25.9775 9.0246 26.9666 7.43021 28.5039C5.83583 30.0412 4.77292 32.0467 4.39583 34.2291C2.98497 34.6929 1.78533 35.6438 1.01188 36.9116C0.238419 38.1794 -0.05831 39.6812 0.174857 41.1479C0.408025 42.6146 1.15585 43.9504 2.28434 44.9158C3.41282 45.8812 4.84822 46.4133 6.33333 46.4166H21.6042C23.3879 46.4166 25.1152 45.7913 26.4856 44.6493C27.8559 43.5074 28.7825 41.9212 29.1042 40.1666H33.4167C35.0743 40.1666 36.664 39.5082 37.8361 38.3361C39.0082 37.164 39.6667 35.5742 39.6667 33.9166V27.6666C39.6667 27.1141 39.4472 26.5842 39.0565 26.1935C38.6658 25.8028 38.1359 25.5833 37.5833 25.5833ZM21.6042 42.25H6.33333C5.7808 42.25 5.25089 42.0305 4.86019 41.6398C4.46949 41.2491 4.25 40.7192 4.25 40.1666C4.25 39.6141 4.46949 39.0842 4.86019 38.6935C5.25089 38.3028 5.7808 38.0833 6.33333 38.0833C6.88587 38.0833 7.41577 37.8638 7.80647 37.4731C8.19717 37.0824 8.41666 36.5525 8.41666 36C8.39985 34.5132 8.91363 33.0692 9.86573 31.9271C10.8178 30.7851 12.1459 30.0199 13.6114 29.769C15.0769 29.518 16.5839 29.7978 17.8617 30.558C19.1396 31.3181 20.1045 32.509 20.5833 33.9166C20.7024 34.2746 20.9165 34.5936 21.2027 34.8394C21.4889 35.0853 21.8365 35.2488 22.2083 35.3125C23.023 35.4474 23.7619 35.8712 24.2899 36.5062C24.8178 37.1413 25.0994 37.9451 25.0833 38.7708C25.0833 39.2277 24.9933 39.6801 24.8185 40.1022C24.6437 40.5243 24.3874 40.9079 24.0643 41.2309C23.7412 41.554 23.3577 41.8103 22.9356 41.9851C22.5135 42.16 22.0611 42.25 21.6042 42.25V42.25Z" fill="#FD7D72"/>
</svg>
