<svg width="52" height="53" viewBox="0 0 52 53" fill="none" xmlns="http://www.w3.org/2000/svg">
<path d="M41.1667 4.83334H10.8333C9.10943 4.83334 7.45612 5.51816 6.23714 6.73715C5.01815 7.95614 4.33333 9.60944 4.33333 11.3333V41.6667C4.33333 43.3906 5.01815 45.0439 6.23714 46.2629C7.45612 47.4819 9.10943 48.1667 10.8333 48.1667H41.1667C41.523 48.1617 41.8783 48.1255 42.2283 48.0583L42.8783 47.9067H43.03H43.1383L43.94 47.6033L44.2217 47.4517C44.4383 47.3217 44.6767 47.2133 44.8933 47.0617C45.1826 46.8488 45.4577 46.6172 45.7167 46.3683L45.8683 46.1733C46.0811 45.9578 46.2766 45.726 46.4533 45.48L46.6483 45.1983C46.7997 44.9571 46.9301 44.7034 47.0383 44.44C47.0978 44.3361 47.1485 44.2273 47.19 44.115C47.2983 43.855 47.3633 43.5733 47.45 43.2917V42.9667C47.5728 42.5433 47.6456 42.107 47.6667 41.6667V11.3333C47.6667 9.60944 46.9818 7.95614 45.7629 6.73715C44.5439 5.51816 42.8906 4.83334 41.1667 4.83334ZM10.8333 43.8333C10.2587 43.8333 9.7076 43.6051 9.30127 43.1987C8.89494 42.7924 8.66667 42.2413 8.66667 41.6667V32.3283L15.795 25.1783C15.9964 24.9753 16.2361 24.8141 16.5001 24.7041C16.7641 24.5941 17.0473 24.5374 17.3333 24.5374C17.6194 24.5374 17.9026 24.5941 18.1666 24.7041C18.4306 24.8141 18.6702 24.9753 18.8717 25.1783L37.505 43.8333H10.8333ZM43.3333 41.6667C43.3313 41.9338 43.2799 42.1983 43.1817 42.4467C43.1321 42.5523 43.0742 42.6537 43.0083 42.75C42.9504 42.8417 42.8852 42.9287 42.8133 43.01L31.2217 31.4183L33.1283 29.5117C33.3298 29.3086 33.5694 29.1474 33.8334 29.0374C34.0974 28.9274 34.3806 28.8708 34.6667 28.8708C34.9527 28.8708 35.2359 28.9274 35.4999 29.0374C35.7639 29.1474 36.0036 29.3086 36.205 29.5117L43.3333 36.6617V41.6667ZM43.3333 30.53L39.26 26.5C38.0201 25.3235 36.3759 24.6676 34.6667 24.6676C32.9574 24.6676 31.3133 25.3235 30.0733 26.5L28.1667 28.4067L21.9267 22.1667C20.6867 20.9902 19.0426 20.3343 17.3333 20.3343C15.6241 20.3343 13.9799 20.9902 12.74 22.1667L8.66667 26.1967V11.3333C8.66667 10.7587 8.89494 10.2076 9.30127 9.80128C9.7076 9.39495 10.2587 9.16668 10.8333 9.16668H41.1667C41.7413 9.16668 42.2924 9.39495 42.6987 9.80128C43.1051 10.2076 43.3333 10.7587 43.3333 11.3333V30.53ZM29.25 13.5C28.6072 13.5 27.9789 13.6906 27.4444 14.0477C26.9099 14.4048 26.4934 14.9124 26.2474 15.5063C26.0014 16.1001 25.937 16.7536 26.0624 17.3841C26.1878 18.0145 26.4974 18.5936 26.9519 19.0481C27.4064 19.5026 27.9855 19.8122 28.616 19.9376C29.2464 20.063 29.8999 19.9986 30.4937 19.7526C31.0876 19.5066 31.5952 19.0901 31.9523 18.5556C32.3094 18.0212 32.5 17.3928 32.5 16.75C32.5 15.8881 32.1576 15.0614 31.5481 14.4519C30.9386 13.8424 30.112 13.5 29.25 13.5Z" fill="#FE9A52"/>
</svg>
