<svg width="21" height="20" viewBox="0 0 21 20" fill="none" xmlns="http://www.w3.org/2000/svg">
<path d="M10.625 5.30859C7.875 5.30859 5.68359 7.54297 5.68359 10.25C5.68359 13 7.875 15.1914 10.625 15.1914C13.332 15.1914 15.5664 13 15.5664 10.25C15.5664 7.54297 13.332 5.30859 10.625 5.30859ZM10.625 13.4727C8.86328 13.4727 7.40234 12.0547 7.40234 10.25C7.40234 8.48828 8.82031 7.07031 10.625 7.07031C12.3867 7.07031 13.8047 8.48828 13.8047 10.25C13.8047 12.0547 12.3867 13.4727 10.625 13.4727ZM16.8984 5.13672C16.8984 4.49219 16.3828 3.97656 15.7383 3.97656C15.0938 3.97656 14.5781 4.49219 14.5781 5.13672C14.5781 5.78125 15.0938 6.29688 15.7383 6.29688C16.3828 6.29688 16.8984 5.78125 16.8984 5.13672ZM20.1641 6.29688C20.0781 4.75 19.7344 3.375 18.6172 2.25781C17.5 1.14062 16.125 0.796875 14.5781 0.710938C12.9883 0.625 8.21875 0.625 6.62891 0.710938C5.08203 0.796875 3.75 1.14062 2.58984 2.25781C1.47266 3.375 1.12891 4.75 1.04297 6.29688C0.957031 7.88672 0.957031 12.6562 1.04297 14.2461C1.12891 15.793 1.47266 17.125 2.58984 18.2852C3.75 19.4023 5.08203 19.7461 6.62891 19.832C8.21875 19.918 12.9883 19.918 14.5781 19.832C16.125 19.7461 17.5 19.4023 18.6172 18.2852C19.7344 17.125 20.0781 15.793 20.1641 14.2461C20.25 12.6562 20.25 7.88672 20.1641 6.29688ZM18.1016 15.9219C17.8008 16.7812 17.1133 17.4258 16.2969 17.7695C15.0078 18.2852 12 18.1562 10.625 18.1562C9.20703 18.1562 6.19922 18.2852 4.95312 17.7695C4.09375 17.4258 3.44922 16.7812 3.10547 15.9219C2.58984 14.6758 2.71875 11.668 2.71875 10.25C2.71875 8.875 2.58984 5.86719 3.10547 4.57812C3.44922 3.76172 4.09375 3.11719 4.95312 2.77344C6.19922 2.25781 9.20703 2.38672 10.625 2.38672C12 2.38672 15.0078 2.25781 16.2969 2.77344C17.1133 3.07422 17.7578 3.76172 18.1016 4.57812C18.6172 5.86719 18.4883 8.875 18.4883 10.25C18.4883 11.668 18.6172 14.6758 18.1016 15.9219Z" fill="#353738"/>
</svg>
