<svg width="54" height="55" viewBox="0 0 54 55" fill="none" xmlns="http://www.w3.org/2000/svg">
<path d="M48.4425 16.8221C48.1005 16.6246 47.7125 16.5207 47.3175 16.5207C46.9225 16.5207 46.5345 16.6246 46.1925 16.8221L38.25 20.7371C38.1859 18.9902 37.4465 17.3362 36.1876 16.1234C34.9286 14.9105 33.2481 14.2334 31.5 14.2346H11.25C9.45979 14.2346 7.7429 14.9458 6.47703 16.2116C5.21116 17.4775 4.5 19.1944 4.5 20.9846V34.4846C4.5 36.2748 5.21116 37.9917 6.47703 39.2576C7.7429 40.5235 9.45979 41.2346 11.25 41.2346H31.5C33.2481 41.2358 34.9286 40.5587 36.1876 39.3459C37.4465 38.1331 38.1859 36.4791 38.25 34.7321L46.26 38.7371C46.5667 38.8944 46.9054 38.979 47.25 38.9846C47.6713 38.986 48.0844 38.869 48.4425 38.6471C48.7668 38.4445 49.034 38.1625 49.219 37.8279C49.4041 37.4933 49.5008 37.117 49.5 36.7346V18.7346C49.5008 18.3522 49.4041 17.976 49.219 17.6414C49.034 17.3067 48.7668 17.0248 48.4425 16.8221V16.8221ZM33.75 34.4846C33.75 35.0814 33.5129 35.6537 33.091 36.0756C32.669 36.4976 32.0967 36.7346 31.5 36.7346H11.25C10.6533 36.7346 10.081 36.4976 9.65901 36.0756C9.23705 35.6537 9 35.0814 9 34.4846V20.9846C9 20.3879 9.23705 19.8156 9.65901 19.3936C10.081 18.9717 10.6533 18.7346 11.25 18.7346H31.5C32.0967 18.7346 32.669 18.9717 33.091 19.3936C33.5129 19.8156 33.75 20.3879 33.75 20.9846V34.4846ZM45 33.0896L38.25 29.7146V25.7546L45 22.3796V33.0896Z" fill="#FE9A52"/>
</svg>
