<svg width="92" height="91" viewBox="0 0 92 91" fill="none" xmlns="http://www.w3.org/2000/svg">
<path d="M56.2152 43.3151L47.1374 51.9802L8.80302 88.5661C7.79663 89.5289 6.5056 90.0103 5.21457 90.0103C3.80156 90.0103 2.38855 89.4367 1.36182 88.2998C-0.661123 86.0669 -0.396819 82.5743 1.9311 80.6692L47.1374 43.8272L52.1185 39.7712L56.2152 43.3151Z" fill="url(#paint0_linear)"/>
<path d="M46.7409 52.4206L37.8053 60.9423L36.9819 52.185L41.8716 48.2007L46.7409 52.4206Z" fill="#3A81D6" fill-opacity="0.8"/>
<path d="M91.9777 29.9078C91.9777 46.4288 78.6811 59.8259 62.2942 59.8259C51.966 59.8259 42.8678 54.5101 37.5512 46.4391C34.4304 41.7071 32.6108 36.0225 32.6108 29.9078C32.6108 13.3868 45.9073 0 62.2942 0C69.6948 0 76.4549 2.72448 81.6495 7.23114C87.9724 12.7211 91.9777 20.8433 91.9777 29.9078Z" fill="url(#paint1_linear)"/>
<path d="M62.2942 53.2093C75.0667 53.2093 85.4209 42.7768 85.4209 29.9078C85.4209 17.0387 75.0667 6.60632 62.2942 6.60632C49.5217 6.60632 39.1675 17.0387 39.1675 29.9078C39.1675 42.7768 49.5217 53.2093 62.2942 53.2093Z" fill="white"/>
<path opacity="0.06" d="M91.9776 29.9078C91.9776 46.4288 78.6811 59.8259 62.2942 59.8259C51.966 59.8259 42.8678 54.5101 37.5512 46.4391C71.0264 43.6941 79.8501 15.1178 81.6596 7.23114C87.9724 12.7211 91.9776 20.8433 91.9776 29.9078Z" fill="#1A6FB5" fill-opacity="0.5"/>
<path d="M62.2942 29.959C64.9779 29.959 67.1533 27.7671 67.1533 25.0631C67.1533 22.3591 64.9779 20.1672 62.2942 20.1672C59.6105 20.1672 57.4351 22.3591 57.4351 25.0631C57.4351 27.7671 59.6003 29.959 62.2942 29.959ZM62.2942 32.4069C59.0514 32.4069 52.5759 34.0457 52.5759 37.3028V38.5319C52.5759 39.2079 53.1249 39.761 53.7958 39.761H70.8129C71.4839 39.761 72.0328 39.2079 72.0328 38.5319V37.3028C72.0125 34.0559 65.537 32.4069 62.2942 32.4069Z" fill="url(#paint2_linear)"/>
<defs>
<linearGradient id="paint0_linear" x1="5.67435" y1="84.3265" x2="53.924" y2="40.7922" gradientUnits="userSpaceOnUse">
<stop stop-color="#67C3F3"/>
<stop offset="1" stop-color="#5A98F2"/>
</linearGradient>
<linearGradient id="paint1_linear" x1="50.017" y1="2.11336" x2="72.7814" y2="52.9053" gradientUnits="userSpaceOnUse">
<stop stop-color="#67C3F3"/>
<stop offset="1" stop-color="#5A98F2"/>
</linearGradient>
<linearGradient id="paint2_linear" x1="55.2683" y1="28.3947" x2="72.9192" y2="36.939" gradientUnits="userSpaceOnUse">
<stop stop-color="#B0F4FF"/>
<stop offset="0.071077" stop-color="#A6F1FF"/>
<stop offset="0.2937" stop-color="#8BE8FD"/>
<stop offset="0.5209" stop-color="#78E1FD"/>
<stop offset="0.7536" stop-color="#6DDDFC"/>
<stop offset="1" stop-color="#69DCFC"/>
</linearGradient>
</defs>
</svg>
