<svg width="53" height="53" viewBox="0 0 53 53" fill="none" xmlns="http://www.w3.org/2000/svg">
<path d="M17.8333 24.3333C17.4048 24.3333 16.9859 24.4604 16.6296 24.6985C16.2733 24.9366 15.9956 25.275 15.8316 25.6709C15.6676 26.0668 15.6247 26.5024 15.7083 26.9227C15.7919 27.343 15.9982 27.7291 16.3013 28.0321C16.6043 28.3351 16.9903 28.5414 17.4106 28.625C17.8309 28.7086 18.2666 28.6657 18.6625 28.5017C19.0584 28.3378 19.3968 28.0601 19.6348 27.7037C19.8729 27.3474 20 26.9285 20 26.5C20 25.9254 19.7717 25.3743 19.3654 24.9679C18.9591 24.5616 18.408 24.3333 17.8333 24.3333ZM26.5 24.3333C26.0715 24.3333 25.6526 24.4604 25.2963 24.6985C24.9399 24.9366 24.6622 25.275 24.4982 25.6709C24.3343 26.0668 24.2914 26.5024 24.375 26.9227C24.4586 27.343 24.6649 27.7291 24.9679 28.0321C25.2709 28.3351 25.657 28.5414 26.0773 28.625C26.4976 28.7086 26.9332 28.6657 27.3291 28.5017C27.725 28.3378 28.0634 28.0601 28.3015 27.7037C28.5396 27.3474 28.6667 26.9285 28.6667 26.5C28.6667 25.9254 28.4384 25.3743 28.0321 24.9679C27.6257 24.5616 27.0746 24.3333 26.5 24.3333ZM35.1667 24.3333C34.7381 24.3333 34.3192 24.4604 33.9629 24.6985C33.6066 24.9366 33.3289 25.275 33.1649 25.6709C33.0009 26.0668 32.958 26.5024 33.0416 26.9227C33.1252 27.343 33.3316 27.7291 33.6346 28.0321C33.9376 28.3351 34.3237 28.5414 34.744 28.625C35.1643 28.7086 35.5999 28.6657 35.9958 28.5017C36.3917 28.3378 36.7301 28.0601 36.9682 27.7037C37.2063 27.3474 37.3333 26.9285 37.3333 26.5C37.3333 25.9254 37.1051 25.3743 36.6987 24.9679C36.2924 24.5616 35.7413 24.3333 35.1667 24.3333ZM26.5 4.83334C23.6547 4.83334 20.8372 5.39377 18.2085 6.48262C15.5798 7.57147 13.1913 9.16743 11.1793 11.1794C7.11605 15.2427 4.83332 20.7537 4.83332 26.5C4.81438 31.5031 6.5467 36.3552 9.72999 40.215L5.39665 44.5483C5.09601 44.853 4.89235 45.2399 4.81137 45.6602C4.7304 46.0806 4.77573 46.5154 4.94165 46.91C5.12161 47.2999 5.41334 47.6274 5.77982 47.8512C6.1463 48.0749 6.57099 48.1847 6.99998 48.1667H26.5C32.2463 48.1667 37.7573 45.8839 41.8206 41.8207C45.8839 37.7574 48.1667 32.2464 48.1667 26.5C48.1667 20.7537 45.8839 15.2427 41.8206 11.1794C37.7573 7.11607 32.2463 4.83334 26.5 4.83334ZM26.5 43.8333H12.2217L14.2367 41.8183C14.4414 41.6177 14.6042 41.3784 14.7158 41.1143C14.8274 40.8503 14.8855 40.5667 14.8867 40.28C14.8785 39.7085 14.6449 39.1634 14.2367 38.7633C11.3996 35.9294 9.63286 32.1995 9.23748 28.2091C8.8421 24.2186 9.84253 20.2145 12.0683 16.879C14.2941 13.5434 17.6075 11.0828 21.4441 9.91628C25.2807 8.74978 29.403 8.94959 33.1088 10.4817C36.8146 12.0137 39.8745 14.7833 41.7673 18.3184C43.66 21.8536 44.2685 25.9357 43.4891 29.8692C42.7097 33.8027 40.5905 37.3443 37.4927 39.8905C34.3948 42.4368 30.51 43.8302 26.5 43.8333Z" fill="#FE9A52"/>
</svg>
