<svg width="46" height="46" viewBox="0 0 46 46" fill="none" xmlns="http://www.w3.org/2000/svg">
<path d="M7.25 37H16.79C17.0861 37.0017 17.3797 36.9449 17.6538 36.833C17.9279 36.721 18.1773 36.556 18.3875 36.3475L33.9575 20.755L40.3475 14.5C40.5584 14.2908 40.7258 14.042 40.84 13.7678C40.9542 13.4936 41.013 13.1995 41.013 12.9025C41.013 12.6055 40.9542 12.3114 40.84 12.0372C40.7258 11.763 40.5584 11.5142 40.3475 11.305L30.8075 1.65248C30.5983 1.4416 30.3495 1.27421 30.0753 1.15998C29.8011 1.04575 29.507 0.986938 29.21 0.986938C28.913 0.986938 28.6189 1.04575 28.3447 1.15998C28.0705 1.27421 27.8217 1.4416 27.6125 1.65248L21.2675 8.01998L5.6525 23.6125C5.44397 23.8227 5.27899 24.0721 5.16701 24.3462C5.05504 24.6203 4.99829 24.9139 5 25.21V34.75C5 35.3467 5.23705 35.919 5.65901 36.341C6.08097 36.7629 6.65326 37 7.25 37ZM29.21 6.42248L35.5775 12.79L32.3825 15.985L26.015 9.61748L29.21 6.42248ZM9.5 26.1325L22.8425 12.79L29.21 19.1575L15.8675 32.5H9.5V26.1325ZM43.25 41.5H2.75C2.15326 41.5 1.58097 41.737 1.15901 42.159C0.737053 42.5809 0.5 43.1532 0.5 43.75C0.5 44.3467 0.737053 44.919 1.15901 45.341C1.58097 45.7629 2.15326 46 2.75 46H43.25C43.8467 46 44.419 45.7629 44.841 45.341C45.2629 44.919 45.5 44.3467 45.5 43.75C45.5 43.1532 45.2629 42.5809 44.841 42.159C44.419 41.737 43.8467 41.5 43.25 41.5Z" fill="#FD7D72"/>
</svg>
