<svg width="49" height="45" viewBox="0 0 49 45" fill="none" xmlns="http://www.w3.org/2000/svg">
<path d="M41.4167 0.75H7.58334C5.66052 0.75 3.81646 1.51384 2.45682 2.87348C1.09718 4.23311 0.333344 6.07718 0.333344 8V27.3333C0.333344 29.2562 1.09718 31.1002 2.45682 32.4599C3.81646 33.8195 5.66052 34.5833 7.58334 34.5833H22.0833V39.4167H12.4167C11.7757 39.4167 11.161 39.6713 10.7078 40.1245C10.2546 40.5777 10 41.1924 10 41.8333C10 42.4743 10.2546 43.089 10.7078 43.5422C11.161 43.9954 11.7757 44.25 12.4167 44.25H36.5833C37.2243 44.25 37.839 43.9954 38.2922 43.5422C38.7454 43.089 39 42.4743 39 41.8333C39 41.1924 38.7454 40.5777 38.2922 40.1245C37.839 39.6713 37.2243 39.4167 36.5833 39.4167H26.9167V34.5833H41.4167C43.3395 34.5833 45.1836 33.8195 46.5432 32.4599C47.9028 31.1002 48.6667 29.2562 48.6667 27.3333V8C48.6667 6.07718 47.9028 4.23311 46.5432 2.87348C45.1836 1.51384 43.3395 0.75 41.4167 0.75ZM43.8333 27.3333C43.8333 27.9743 43.5787 28.589 43.1255 29.0422C42.6723 29.4954 42.0576 29.75 41.4167 29.75H7.58334C6.9424 29.75 6.32772 29.4954 5.8745 29.0422C5.42129 28.589 5.16668 27.9743 5.16668 27.3333V8C5.16668 7.35906 5.42129 6.74437 5.8745 6.29116C6.32772 5.83795 6.9424 5.58333 7.58334 5.58333H41.4167C42.0576 5.58333 42.6723 5.83795 43.1255 6.29116C43.5787 6.74437 43.8333 7.35906 43.8333 8V27.3333Z" fill="#FD7D72"/>
</svg>
